<mxfile host="65bd71144e">
    <diagram id="YbJ1rBWKR_pdyxd1Jkg7" name="Page-1">
        <mxGraphModel dx="2795" dy="677" grid="1" gridSize="10" guides="1" tooltips="1" connect="1" arrows="1" fold="1" page="1" pageScale="1" pageWidth="1600" pageHeight="900" math="0" shadow="0">
            <root>
                <mxCell id="0"/>
                <mxCell id="1" parent="0"/>
                <mxCell id="242" value="timeout" style="edgeStyle=none;html=1;strokeColor=default;fontSize=10;startArrow=none;startFill=0;" edge="1" parent="1" source="2" target="241">
                    <mxGeometry relative="1" as="geometry"/>
                </mxCell>
                <mxCell id="245" value="&lt;span&gt;sensor in|ext&lt;/span&gt;" style="edgeStyle=orthogonalEdgeStyle;html=1;entryX=0;entryY=0.5;entryDx=0;entryDy=0;strokeColor=default;fontSize=10;startArrow=none;startFill=0;fontStyle=0" edge="1" parent="1" source="2" target="82">
                    <mxGeometry relative="1" as="geometry"/>
                </mxCell>
                <mxCell id="2" value="ExtDoor closed&lt;br style=&quot;font-size: 10px;&quot;&gt;IntDoor open&lt;br style=&quot;font-size: 10px;&quot;&gt;Air pressurized&lt;br&gt;&lt;b&gt;Way none&lt;/b&gt;" style="rounded=1;whiteSpace=wrap;html=1;fillColor=#d5e8d4;strokeColor=#82b366;fontSize=10;" vertex="1" parent="1">
                    <mxGeometry x="40" y="270" width="120" height="70" as="geometry"/>
                </mxCell>
                <mxCell id="197" value="sensor int" style="edgeStyle=orthogonalEdgeStyle;html=1;fontSize=10;startArrow=none;startFill=0;elbow=vertical;entryX=0.5;entryY=1;entryDx=0;entryDy=0;exitX=0;exitY=0.25;exitDx=0;exitDy=0;fontStyle=1" edge="1" parent="1" source="3" target="233">
                    <mxGeometry relative="1" as="geometry"/>
                </mxCell>
                <mxCell id="199" value="sensor ext" style="edgeStyle=orthogonalEdgeStyle;html=1;exitX=1;exitY=0.5;exitDx=0;exitDy=0;fontSize=10;startArrow=none;startFill=0;" edge="1" parent="1" source="3" target="232">
                    <mxGeometry x="-0.7009" relative="1" as="geometry">
                        <mxPoint as="offset"/>
                    </mxGeometry>
                </mxCell>
                <mxCell id="3" value="ExtDoor closed&lt;br style=&quot;font-size: 10px;&quot;&gt;IntDoor closed&lt;br style=&quot;font-size: 10px;&quot;&gt;Air pressurized&lt;br&gt;&lt;b style=&quot;border-color: var(--border-color);&quot;&gt;Way none&lt;/b&gt;" style="rounded=1;whiteSpace=wrap;html=1;fillColor=#d5e8d4;strokeColor=#82b366;fontSize=10;arcSize=12;" vertex="1" parent="1">
                    <mxGeometry x="40" y="490" width="120" height="70" as="geometry"/>
                </mxCell>
                <mxCell id="201" value="sensor int" style="edgeStyle=orthogonalEdgeStyle;html=1;exitX=0;exitY=0.25;exitDx=0;exitDy=0;fontSize=10;startArrow=none;startFill=0;" edge="1" parent="1" source="4" target="222">
                    <mxGeometry x="-0.7356" relative="1" as="geometry">
                        <mxPoint as="offset"/>
                    </mxGeometry>
                </mxCell>
                <mxCell id="202" value="sensor ext" style="edgeStyle=orthogonalEdgeStyle;html=1;fontSize=10;startArrow=none;startFill=0;exitX=0;exitY=0.75;exitDx=0;exitDy=0;fontStyle=1" edge="1" parent="1" source="4" target="225">
                    <mxGeometry x="-0.4185" relative="1" as="geometry">
                        <mxPoint as="offset"/>
                    </mxGeometry>
                </mxCell>
                <mxCell id="4" value="ExtDoor closed&lt;br style=&quot;font-size: 10px;&quot;&gt;IntDoor closed&lt;br style=&quot;font-size: 10px;&quot;&gt;Air depressurized&lt;br&gt;&lt;b style=&quot;border-color: var(--border-color);&quot;&gt;Way none&lt;/b&gt;" style="rounded=1;whiteSpace=wrap;html=1;fillColor=#d5e8d4;strokeColor=#82b366;fontSize=10;" vertex="1" parent="1">
                    <mxGeometry x="40" y="1030" width="120" height="70" as="geometry"/>
                </mxCell>
                <mxCell id="158" value="&lt;span&gt;sensor in|int&lt;/span&gt;" style="html=1;fontSize=10;startArrow=none;startFill=0;elbow=vertical;edgeStyle=orthogonalEdgeStyle;fontStyle=0" edge="1" parent="1" source="5" target="156">
                    <mxGeometry relative="1" as="geometry">
                        <mxPoint x="220" y="1220" as="targetPoint"/>
                    </mxGeometry>
                </mxCell>
                <mxCell id="5" value="ExtDoor open&lt;br style=&quot;font-size: 10px;&quot;&gt;IntDoor closed&lt;br style=&quot;font-size: 10px;&quot;&gt;Air depressurized&lt;br&gt;&lt;b&gt;Way none&lt;/b&gt;" style="rounded=1;whiteSpace=wrap;html=1;fillColor=#d5e8d4;strokeColor=#82b366;fontSize=10;" vertex="1" parent="1">
                    <mxGeometry x="40" y="1250" width="120" height="70" as="geometry"/>
                </mxCell>
                <mxCell id="249" value="timeout" style="edgeStyle=orthogonalEdgeStyle;html=1;strokeColor=default;fontSize=10;startArrow=none;startFill=0;" edge="1" parent="1" source="6" target="248">
                    <mxGeometry relative="1" as="geometry"/>
                </mxCell>
                <mxCell id="6" value="ExtDoor open&lt;br style=&quot;font-size: 10px;&quot;&gt;IntDoor open&lt;br style=&quot;font-size: 10px;&quot;&gt;Air depressurized&lt;br&gt;&lt;b&gt;Way none&lt;/b&gt;" style="rounded=1;whiteSpace=wrap;html=1;fillColor=#ffe6cc;strokeColor=#d79b00;fontSize=10;" vertex="1" parent="1">
                    <mxGeometry x="40" y="1470" width="120" height="70" as="geometry"/>
                </mxCell>
                <mxCell id="257" value="timeout" style="edgeStyle=orthogonalEdgeStyle;html=1;strokeColor=default;fontSize=10;startArrow=none;startFill=0;elbow=vertical;" edge="1" parent="1" source="7" target="256">
                    <mxGeometry relative="1" as="geometry"/>
                </mxCell>
                <mxCell id="7" value="ExtDoor open&lt;br style=&quot;font-size: 10px;&quot;&gt;IntDoor closed&lt;br style=&quot;font-size: 10px;&quot;&gt;Air pressurized&lt;br&gt;&lt;b style=&quot;border-color: var(--border-color);&quot;&gt;Way none&lt;/b&gt;" style="rounded=1;whiteSpace=wrap;html=1;fillColor=#ffe6cc;strokeColor=#d79b00;fontSize=10;" vertex="1" parent="1">
                    <mxGeometry x="40" y="710" width="120" height="70" as="geometry"/>
                </mxCell>
                <mxCell id="260" value="" style="edgeStyle=orthogonalEdgeStyle;html=1;strokeColor=default;fontSize=10;startArrow=none;startFill=0;elbow=vertical;" edge="1" parent="1" source="9" target="259">
                    <mxGeometry relative="1" as="geometry"/>
                </mxCell>
                <mxCell id="295" value="timeout" style="edgeStyle=none;html=1;strokeColor=default;fontSize=10;startArrow=none;startFill=0;elbow=vertical;" edge="1" parent="1" source="9" target="259">
                    <mxGeometry relative="1" as="geometry"/>
                </mxCell>
                <mxCell id="9" value="ExtDoor closed&lt;br style=&quot;font-size: 10px;&quot;&gt;IntDoor open&lt;br style=&quot;font-size: 10px;&quot;&gt;Air depressurized&lt;br&gt;&lt;b style=&quot;border-color: var(--border-color);&quot;&gt;Way none&lt;/b&gt;" style="rounded=1;whiteSpace=wrap;html=1;fillColor=#ffe6cc;strokeColor=#d79b00;fontSize=10;" vertex="1" parent="1">
                    <mxGeometry x="40" y="810" width="120" height="70" as="geometry"/>
                </mxCell>
                <mxCell id="252" value="timeout" style="edgeStyle=orthogonalEdgeStyle;html=1;strokeColor=default;fontSize=10;startArrow=none;startFill=0;" edge="1" parent="1" source="10" target="251">
                    <mxGeometry relative="1" as="geometry"/>
                </mxCell>
                <mxCell id="10" value="ExtDoor open&lt;br style=&quot;font-size: 10px;&quot;&gt;IntDoor open&lt;br style=&quot;font-size: 10px;&quot;&gt;Air pressurized&lt;br&gt;&lt;b style=&quot;border-color: var(--border-color);&quot;&gt;Way none&lt;/b&gt;" style="rounded=1;whiteSpace=wrap;html=1;fillColor=#ffe6cc;strokeColor=#d79b00;fontSize=10;" vertex="1" parent="1">
                    <mxGeometry x="40" y="50" width="120" height="70" as="geometry"/>
                </mxCell>
                <mxCell id="90" style="edgeStyle=elbowEdgeStyle;elbow=vertical;html=1;fontSize=10;" edge="1" parent="1" source="14">
                    <mxGeometry relative="1" as="geometry">
                        <mxPoint x="320" y="310" as="targetPoint"/>
                    </mxGeometry>
                </mxCell>
                <mxCell id="94" value="" style="edgeStyle=elbowEdgeStyle;elbow=vertical;html=1;fontSize=10;startArrow=classic;startFill=1;" edge="1" parent="1" target="14">
                    <mxGeometry relative="1" as="geometry">
                        <mxPoint x="320" y="310" as="sourcePoint"/>
                    </mxGeometry>
                </mxCell>
                <mxCell id="86" style="edgeStyle=elbowEdgeStyle;html=1;fontSize=10;" edge="1" parent="1" source="82" target="71">
                    <mxGeometry relative="1" as="geometry"/>
                </mxCell>
                <mxCell id="82" value="ExtDoor closed&lt;br style=&quot;border-color: var(--border-color);&quot;&gt;IntDoor open&lt;br style=&quot;border-color: var(--border-color);&quot;&gt;Air pressurized&lt;br&gt;&lt;b&gt;Way out&lt;/b&gt;" style="rounded=1;whiteSpace=wrap;html=1;fillColor=#d5e8d4;strokeColor=#82b366;fontSize=10;" vertex="1" parent="1">
                    <mxGeometry x="240" y="270" width="120" height="70" as="geometry"/>
                </mxCell>
                <mxCell id="96" value="" style="edgeStyle=elbowEdgeStyle;elbow=vertical;html=1;fontSize=10;startArrow=classic;startFill=1;" edge="1" parent="1" source="15">
                    <mxGeometry relative="1" as="geometry">
                        <mxPoint x="330" y="480" as="sourcePoint"/>
                        <mxPoint x="320" y="400" as="targetPoint"/>
                    </mxGeometry>
                </mxCell>
                <mxCell id="115" value="sensor not in&lt;br&gt;or timeout" style="edgeStyle=elbowEdgeStyle;elbow=vertical;html=1;fontSize=10;startArrow=none;startFill=0;" edge="1" parent="1" source="110" target="114">
                    <mxGeometry relative="1" as="geometry"/>
                </mxCell>
                <mxCell id="114" value="ExtDoor open&lt;br style=&quot;border-color: var(--border-color);&quot;&gt;IntDoor closed&lt;br style=&quot;border-color: var(--border-color);&quot;&gt;Air depressurized&lt;br style=&quot;border-color: var(--border-color);&quot;&gt;&lt;b style=&quot;border-color: var(--border-color);&quot;&gt;Way none&lt;/b&gt;" style="rounded=1;whiteSpace=wrap;html=1;fillColor=#d5e8d4;strokeColor=#82b366;fontSize=10;" vertex="1" parent="1">
                    <mxGeometry x="2250" y="270" width="120" height="70" as="geometry"/>
                </mxCell>
                <mxCell id="195" value="" style="edgeStyle=orthogonalEdgeStyle;html=1;fontSize=10;startArrow=none;startFill=0;elbow=vertical;" edge="1" parent="1" source="156" target="162">
                    <mxGeometry relative="1" as="geometry"/>
                </mxCell>
                <mxCell id="156" value="ExtDoor open&lt;br style=&quot;border-color: var(--border-color);&quot;&gt;IntDoor closed&lt;br style=&quot;border-color: var(--border-color);&quot;&gt;Air depressurized&lt;br style=&quot;border-color: var(--border-color);&quot;&gt;&lt;b&gt;Way in&lt;/b&gt;" style="rounded=1;whiteSpace=wrap;html=1;fillColor=#d5e8d4;strokeColor=#82b366;fontSize=10;" vertex="1" parent="1">
                    <mxGeometry x="240" y="1254.5" width="120" height="61" as="geometry"/>
                </mxCell>
                <mxCell id="181" value="&lt;span style=&quot;background-color: rgb(251, 251, 251);&quot;&gt;Sensor not in&lt;br&gt;or timeout&lt;br&gt;&lt;/span&gt;" style="elbow=vertical;html=1;fontSize=10;startArrow=none;startFill=0;entryX=0;entryY=0.5;entryDx=0;entryDy=0;exitX=1;exitY=0.5;exitDx=0;exitDy=0;" edge="1" source="184" target="292" parent="1">
                    <mxGeometry relative="1" as="geometry"/>
                </mxCell>
                <mxCell id="184" value="ExtDoor closed&lt;br style=&quot;border-color: var(--border-color);&quot;&gt;IntDoor open&lt;br style=&quot;border-color: var(--border-color);&quot;&gt;Air pressurized&lt;br style=&quot;border-color: var(--border-color);&quot;&gt;&lt;b style=&quot;border-color: var(--border-color);&quot;&gt;Way in&lt;/b&gt;" style="rounded=1;whiteSpace=wrap;html=1;fillColor=#e1d5e7;strokeColor=#9673a6;fontSize=10;" vertex="1" parent="1">
                    <mxGeometry x="2190" y="1250" width="120" height="70" as="geometry"/>
                </mxCell>
                <mxCell id="205" value="timeout" style="edgeStyle=orthogonalEdgeStyle;html=1;fontSize=10;startArrow=none;startFill=0;elbow=vertical;" edge="1" parent="1" source="5" target="210">
                    <mxGeometry relative="1" as="geometry">
                        <mxPoint x="100" y="1230" as="sourcePoint"/>
                        <mxPoint x="250" y="1260.0434782608695" as="targetPoint"/>
                        <Array as="points"/>
                    </mxGeometry>
                </mxCell>
                <mxCell id="209" value="" style="edgeStyle=elbowEdgeStyle;elbow=vertical;html=1;fontSize=10;startArrow=none;startFill=0;" edge="1" source="210" target="4" parent="1">
                    <mxGeometry relative="1" as="geometry">
                        <mxPoint x="930" y="1520" as="targetPoint"/>
                    </mxGeometry>
                </mxCell>
                <mxCell id="210" value="Close ExtDoor" style="rounded=1;whiteSpace=wrap;html=1;fillColor=#dae8fc;strokeColor=#6c8ebf;fontSize=10;strokeWidth=3;perimeterSpacing=0;glass=0;shadow=0;" vertex="1" parent="1">
                    <mxGeometry x="40" y="1140" width="120" height="70" as="geometry"/>
                </mxCell>
                <mxCell id="211" value="" style="edgeStyle=elbowEdgeStyle;elbow=vertical;html=1;fontSize=10;startArrow=none;startFill=0;" edge="1" target="213" parent="1">
                    <mxGeometry relative="1" as="geometry">
                        <mxPoint x="690" y="1165.2631578947369" as="sourcePoint"/>
                    </mxGeometry>
                </mxCell>
                <mxCell id="268" style="edgeStyle=orthogonalEdgeStyle;html=1;exitX=0.5;exitY=0;exitDx=0;exitDy=0;entryX=0;entryY=0.75;entryDx=0;entryDy=0;strokeColor=default;fontSize=10;startArrow=none;startFill=0;elbow=vertical;" edge="1" parent="1" source="222" target="3">
                    <mxGeometry relative="1" as="geometry"/>
                </mxCell>
                <mxCell id="222" value="&lt;span&gt;Pressurize&lt;/span&gt;" style="rounded=1;whiteSpace=wrap;html=1;fillColor=#dae8fc;strokeColor=#6c8ebf;fontSize=10;fontStyle=0;strokeWidth=3;perimeterSpacing=0;" vertex="1" parent="1">
                    <mxGeometry x="-160" y="920" width="120" height="70" as="geometry"/>
                </mxCell>
                <mxCell id="227" value="" style="edgeStyle=orthogonalEdgeStyle;html=1;fontSize=10;startArrow=none;startFill=0;exitX=0.5;exitY=1;exitDx=0;exitDy=0;entryX=0;entryY=0.25;entryDx=0;entryDy=0;" edge="1" parent="1" source="225" target="5">
                    <mxGeometry relative="1" as="geometry"/>
                </mxCell>
                <mxCell id="225" value="Open ExtDoor" style="rounded=1;whiteSpace=wrap;html=1;fillColor=#dae8fc;strokeColor=#6c8ebf;fontSize=10;strokeWidth=3;perimeterSpacing=0;" vertex="1" parent="1">
                    <mxGeometry x="-160" y="1140" width="120" height="70" as="geometry"/>
                </mxCell>
                <mxCell id="231" value="Open ExtDoor" style="swimlane;whiteSpace=wrap;html=1;fontSize=10;" vertex="1" parent="1">
                    <mxGeometry x="1730" y="230" width="440" height="150" as="geometry">
                        <mxRectangle x="1320" y="225" width="110" height="30" as="alternateBounds"/>
                    </mxGeometry>
                </mxCell>
                <mxCell id="112" value="" style="edgeStyle=elbowEdgeStyle;elbow=vertical;html=1;fontSize=10;startArrow=none;startFill=0;" edge="1" parent="231" source="108" target="109">
                    <mxGeometry relative="1" as="geometry"/>
                </mxCell>
                <mxCell id="113" value="" style="edgeStyle=elbowEdgeStyle;elbow=vertical;html=1;fontSize=10;startArrow=none;startFill=0;" edge="1" parent="231" source="109" target="110">
                    <mxGeometry relative="1" as="geometry"/>
                </mxCell>
                <mxCell id="108" value="ExtDoor.Open()" style="rounded=1;whiteSpace=wrap;html=1;fillColor=#f5f5f5;strokeColor=#666666;fontSize=10;fontColor=#333333;" vertex="1" parent="231">
                    <mxGeometry x="10" y="40" width="120" height="70" as="geometry"/>
                </mxCell>
                <mxCell id="276" value="" style="edgeStyle=orthogonalEdgeStyle;html=1;strokeColor=default;fontSize=10;startArrow=none;startFill=0;elbow=vertical;" edge="1" parent="231" source="109" target="145">
                    <mxGeometry relative="1" as="geometry"/>
                </mxCell>
                <mxCell id="109" value="ExtDoor opening" style="rounded=1;whiteSpace=wrap;html=1;fillColor=#dae8fc;strokeColor=#6c8ebf;fontSize=10;" vertex="1" parent="231">
                    <mxGeometry x="160" y="40" width="120" height="70" as="geometry"/>
                </mxCell>
                <mxCell id="110" value="ExtDoor open" style="rounded=1;whiteSpace=wrap;html=1;fillColor=#dae8fc;strokeColor=#6c8ebf;fontSize=10;" vertex="1" parent="231">
                    <mxGeometry x="310" y="40" width="120" height="70" as="geometry"/>
                </mxCell>
                <mxCell id="145" value="Error ExtDoor not opening" style="rounded=1;whiteSpace=wrap;html=1;fillColor=#f8cecc;strokeColor=#b85450;fontSize=10;" vertex="1" parent="231">
                    <mxGeometry x="160" y="190" width="120" height="70" as="geometry"/>
                </mxCell>
                <mxCell id="146" value="timeout" style="edgeStyle=orthogonalEdgeStyle;html=1;fontSize=10;startArrow=none;startFill=0;elbow=vertical;" edge="1" parent="231" source="109" target="145">
                    <mxGeometry relative="1" as="geometry"/>
                </mxCell>
                <mxCell id="267" style="edgeStyle=orthogonalEdgeStyle;html=1;exitX=0.5;exitY=1;exitDx=0;exitDy=0;entryX=1;entryY=0.5;entryDx=0;entryDy=0;strokeColor=default;fontSize=10;startArrow=none;startFill=0;elbow=vertical;" edge="1" parent="1" source="232" target="4">
                    <mxGeometry relative="1" as="geometry"/>
                </mxCell>
                <mxCell id="232" value="Depressurize" style="rounded=1;whiteSpace=wrap;html=1;fillColor=#d5e8d4;strokeColor=#82b366;fontSize=10;" vertex="1" parent="1">
                    <mxGeometry x="240" y="600" width="120" height="70" as="geometry"/>
                </mxCell>
                <mxCell id="235" style="edgeStyle=orthogonalEdgeStyle;html=1;exitX=0.5;exitY=0;exitDx=0;exitDy=0;entryX=0;entryY=0.5;entryDx=0;entryDy=0;strokeColor=default;fontSize=10;startArrow=none;startFill=0;" edge="1" parent="1" source="233" target="2">
                    <mxGeometry relative="1" as="geometry"/>
                </mxCell>
                <mxCell id="233" value="&lt;span&gt;Open IntDoor&lt;/span&gt;" style="rounded=1;whiteSpace=wrap;html=1;fillColor=#d5e8d4;strokeColor=#82b366;fontSize=10;fontStyle=0" vertex="1" parent="1">
                    <mxGeometry x="-160" y="380" width="120" height="70" as="geometry"/>
                </mxCell>
                <mxCell id="236" value="Open IntDoor" style="swimlane;whiteSpace=wrap;html=1;fontSize=10;" vertex="1" parent="1">
                    <mxGeometry x="1730" y="1210" width="440" height="150" as="geometry">
                        <mxRectangle x="1480" y="1210" width="100" height="30" as="alternateBounds"/>
                    </mxGeometry>
                </mxCell>
                <mxCell id="177" value="intDoor.Open()" style="rounded=1;whiteSpace=wrap;html=1;fontSize=10;fillColor=#f5f5f5;fontColor=#333333;strokeColor=#666666;" vertex="1" parent="236">
                    <mxGeometry x="10" y="40" width="120" height="70" as="geometry"/>
                </mxCell>
                <mxCell id="180" value="intDoor opening" style="rounded=1;whiteSpace=wrap;html=1;fillColor=#dae8fc;strokeColor=#6c8ebf;fontSize=10;" vertex="1" parent="236">
                    <mxGeometry x="160" y="40" width="120" height="70" as="geometry"/>
                </mxCell>
                <mxCell id="183" value="intDoor open" style="rounded=1;whiteSpace=wrap;html=1;fillColor=#dae8fc;strokeColor=#6c8ebf;fontSize=10;" vertex="1" parent="236">
                    <mxGeometry x="310" y="40" width="120" height="70" as="geometry"/>
                </mxCell>
                <mxCell id="193" value="Error intDoor not opening" style="rounded=1;whiteSpace=wrap;html=1;fillColor=#f8cecc;strokeColor=#b85450;fontSize=10;" vertex="1" parent="236">
                    <mxGeometry x="160" y="190" width="120" height="70" as="geometry"/>
                </mxCell>
                <mxCell id="176" value="" style="edgeStyle=elbowEdgeStyle;elbow=vertical;html=1;fontSize=10;startArrow=none;startFill=0;" edge="1" source="177" target="180" parent="236">
                    <mxGeometry relative="1" as="geometry"/>
                </mxCell>
                <mxCell id="178" value="" style="edgeStyle=elbowEdgeStyle;elbow=vertical;html=1;fontSize=10;startArrow=none;startFill=0;" edge="1" source="180" target="183" parent="236">
                    <mxGeometry relative="1" as="geometry"/>
                </mxCell>
                <mxCell id="179" value="timeout" style="html=1;fontSize=10;startArrow=none;startFill=0;elbow=vertical;" edge="1" source="180" target="193" parent="236">
                    <mxGeometry relative="1" as="geometry"/>
                </mxCell>
                <mxCell id="240" value="Close ExtDoor" style="swimlane;whiteSpace=wrap;html=1;fontSize=10;" vertex="1" parent="1">
                    <mxGeometry x="380" y="1210" width="440" height="150" as="geometry">
                        <mxRectangle x="410" y="1210" width="110" height="30" as="alternateBounds"/>
                    </mxGeometry>
                </mxCell>
                <mxCell id="162" value="extDoor.Close()" style="rounded=1;whiteSpace=wrap;html=1;fillColor=#f5f5f5;strokeColor=#666666;fontSize=10;fontColor=#333333;" vertex="1" parent="240">
                    <mxGeometry x="10" y="40" width="120" height="70" as="geometry"/>
                </mxCell>
                <mxCell id="165" value="extDoor closing" style="rounded=1;whiteSpace=wrap;html=1;fillColor=#dae8fc;strokeColor=#6c8ebf;fontSize=10;" vertex="1" parent="240">
                    <mxGeometry x="160" y="40" width="120" height="70" as="geometry"/>
                </mxCell>
                <mxCell id="167" value="extDoor closed" style="rounded=1;whiteSpace=wrap;html=1;fillColor=#dae8fc;strokeColor=#6c8ebf;fontSize=10;" vertex="1" parent="240">
                    <mxGeometry x="310" y="40" width="120" height="70" as="geometry"/>
                </mxCell>
                <mxCell id="160" value="" style="edgeStyle=elbowEdgeStyle;elbow=vertical;html=1;fontSize=10;startArrow=none;startFill=0;" edge="1" source="162" target="165" parent="240">
                    <mxGeometry relative="1" as="geometry"/>
                </mxCell>
                <mxCell id="163" value="" style="edgeStyle=elbowEdgeStyle;elbow=vertical;html=1;fontSize=10;startArrow=none;startFill=0;" edge="1" source="165" target="167" parent="240">
                    <mxGeometry relative="1" as="geometry"/>
                </mxCell>
                <mxCell id="243" value="" style="edgeStyle=none;html=1;strokeColor=default;fontSize=10;startArrow=none;startFill=0;" edge="1" parent="1" source="241" target="3">
                    <mxGeometry relative="1" as="geometry"/>
                </mxCell>
                <mxCell id="241" value="Close IntDoor" style="rounded=1;whiteSpace=wrap;html=1;fillColor=#d5e8d4;strokeColor=#82b366;fontSize=10;" vertex="1" parent="1">
                    <mxGeometry x="40" y="380" width="120" height="70" as="geometry"/>
                </mxCell>
                <mxCell id="247" value="Close IntDoor" style="swimlane;whiteSpace=wrap;html=1;fontSize=10;" vertex="1" parent="1">
                    <mxGeometry x="380" y="230" width="440" height="150" as="geometry"/>
                </mxCell>
                <mxCell id="71" value="intDoor.Close()" style="rounded=1;whiteSpace=wrap;html=1;fillColor=#f5f5f5;strokeColor=#666666;fontSize=10;fontColor=#333333;" vertex="1" parent="247">
                    <mxGeometry x="10" y="40" width="120" height="70" as="geometry"/>
                </mxCell>
                <mxCell id="98" value="IntDoor closing" style="rounded=1;whiteSpace=wrap;html=1;fillColor=#dae8fc;strokeColor=#6c8ebf;fontSize=10;" vertex="1" parent="247">
                    <mxGeometry x="160" y="40" width="120" height="70" as="geometry"/>
                </mxCell>
                <mxCell id="100" value="IntDoor closed" style="rounded=1;whiteSpace=wrap;html=1;fillColor=#dae8fc;strokeColor=#6c8ebf;fontSize=10;" vertex="1" parent="247">
                    <mxGeometry x="310" y="40" width="120" height="70" as="geometry"/>
                </mxCell>
                <mxCell id="138" value="Error intDoor not closing" style="rounded=1;whiteSpace=wrap;html=1;fillColor=#f8cecc;strokeColor=#b85450;fontSize=10;" vertex="1" parent="247">
                    <mxGeometry x="160" y="190" width="120" height="70" as="geometry"/>
                </mxCell>
                <mxCell id="99" value="" style="edgeStyle=elbowEdgeStyle;elbow=vertical;html=1;fontSize=10;startArrow=none;startFill=0;" edge="1" parent="247" source="71" target="98">
                    <mxGeometry relative="1" as="geometry"/>
                </mxCell>
                <mxCell id="101" value="" style="edgeStyle=elbowEdgeStyle;elbow=vertical;html=1;fontSize=10;startArrow=none;startFill=0;" edge="1" parent="247" source="98" target="100">
                    <mxGeometry relative="1" as="geometry"/>
                </mxCell>
                <mxCell id="140" value="timeout" style="edgeStyle=none;html=1;fontSize=10;startArrow=none;startFill=0;elbow=vertical;" edge="1" parent="247" source="98" target="138">
                    <mxGeometry relative="1" as="geometry"/>
                </mxCell>
                <mxCell id="250" value="" style="edgeStyle=orthogonalEdgeStyle;html=1;strokeColor=default;fontSize=10;startArrow=none;startFill=0;" edge="1" parent="1" source="248" target="5">
                    <mxGeometry relative="1" as="geometry"/>
                </mxCell>
                <mxCell id="248" value="Close IntDoor" style="rounded=1;whiteSpace=wrap;html=1;fillColor=#dae8fc;strokeColor=#6c8ebf;fontSize=10;strokeWidth=3;perimeterSpacing=0;" vertex="1" parent="1">
                    <mxGeometry x="40" y="1361" width="120" height="70" as="geometry"/>
                </mxCell>
                <mxCell id="253" value="" style="edgeStyle=orthogonalEdgeStyle;html=1;strokeColor=default;fontSize=10;startArrow=none;startFill=0;" edge="1" parent="1" source="251" target="2">
                    <mxGeometry relative="1" as="geometry"/>
                </mxCell>
                <mxCell id="251" value="Close ExtDoor" style="rounded=1;whiteSpace=wrap;html=1;fillColor=#d5e8d4;strokeColor=#82b366;fontSize=10;" vertex="1" parent="1">
                    <mxGeometry x="40" y="160" width="120" height="70" as="geometry"/>
                </mxCell>
                <mxCell id="258" value="" style="edgeStyle=orthogonalEdgeStyle;html=1;strokeColor=default;fontSize=10;startArrow=none;startFill=0;elbow=vertical;" edge="1" parent="1" source="256" target="3">
                    <mxGeometry relative="1" as="geometry"/>
                </mxCell>
                <mxCell id="256" value="Close ExtDoor" style="rounded=1;whiteSpace=wrap;html=1;fillColor=#d5e8d4;strokeColor=#82b366;fontSize=10;" vertex="1" parent="1">
                    <mxGeometry x="40" y="600" width="120" height="70" as="geometry"/>
                </mxCell>
                <mxCell id="261" value="" style="edgeStyle=orthogonalEdgeStyle;html=1;strokeColor=default;fontSize=10;startArrow=none;startFill=0;elbow=vertical;" edge="1" parent="1" source="259" target="4">
                    <mxGeometry relative="1" as="geometry"/>
                </mxCell>
                <mxCell id="259" value="Close IntDoor" style="rounded=1;whiteSpace=wrap;html=1;fillColor=#dae8fc;strokeColor=#6c8ebf;fontSize=10;strokeWidth=3;perimeterSpacing=0;" vertex="1" parent="1">
                    <mxGeometry x="40" y="920" width="120" height="70" as="geometry"/>
                </mxCell>
                <mxCell id="269" value="Depressurize" style="swimlane;whiteSpace=wrap;html=1;fontSize=10;" vertex="1" parent="1">
                    <mxGeometry x="980" y="230" width="590" height="150" as="geometry"/>
                </mxCell>
                <mxCell id="102" value="Air.Depressurize()&lt;br&gt;Lights on" style="rounded=1;whiteSpace=wrap;html=1;fillColor=#f5f5f5;strokeColor=#666666;fontSize=10;fontColor=#333333;" vertex="1" parent="269">
                    <mxGeometry x="10" y="40" width="120" height="70" as="geometry"/>
                </mxCell>
                <mxCell id="103" value="Air depressurizing" style="rounded=1;whiteSpace=wrap;html=1;fillColor=#dae8fc;strokeColor=#6c8ebf;fontSize=10;" vertex="1" parent="269">
                    <mxGeometry x="160" y="40" width="120" height="70" as="geometry"/>
                </mxCell>
                <mxCell id="104" value="Air depressurized" style="rounded=1;whiteSpace=wrap;html=1;fillColor=#dae8fc;strokeColor=#6c8ebf;fontSize=10;" vertex="1" parent="269">
                    <mxGeometry x="310" y="40" width="120" height="70" as="geometry"/>
                </mxCell>
                <mxCell id="264" value="Lights off" style="rounded=1;whiteSpace=wrap;html=1;fillColor=#f5f5f5;strokeColor=#666666;fontSize=10;fontColor=#333333;" vertex="1" parent="269">
                    <mxGeometry x="460" y="40" width="120" height="70" as="geometry"/>
                </mxCell>
                <mxCell id="106" value="" style="edgeStyle=elbowEdgeStyle;elbow=vertical;html=1;fontSize=10;startArrow=none;startFill=0;" edge="1" parent="269" source="102" target="103">
                    <mxGeometry relative="1" as="geometry"/>
                </mxCell>
                <mxCell id="107" value="" style="edgeStyle=elbowEdgeStyle;elbow=vertical;html=1;fontSize=10;startArrow=none;startFill=0;" edge="1" parent="269" source="103" target="104">
                    <mxGeometry relative="1" as="geometry"/>
                </mxCell>
                <mxCell id="265" value="" style="edgeStyle=orthogonalEdgeStyle;html=1;strokeColor=default;fontSize=10;startArrow=none;startFill=0;elbow=vertical;" edge="1" parent="269" source="104" target="264">
                    <mxGeometry relative="1" as="geometry"/>
                </mxCell>
                <mxCell id="144" value="timeout" style="edgeStyle=orthogonalEdgeStyle;html=1;fontSize=10;startArrow=none;startFill=0;strokeColor=default;exitX=0.5;exitY=1;exitDx=0;exitDy=0;elbow=vertical;entryX=0.5;entryY=1;entryDx=0;entryDy=0;" edge="1" parent="269" source="103" target="264">
                    <mxGeometry relative="1" as="geometry">
                        <mxPoint x="430" as="targetPoint"/>
                        <Array as="points">
                            <mxPoint x="220" y="130"/>
                            <mxPoint x="520" y="130"/>
                        </Array>
                    </mxGeometry>
                </mxCell>
                <mxCell id="270" value="Pressurize" style="swimlane;whiteSpace=wrap;html=1;fontSize=10;" vertex="1" parent="1">
                    <mxGeometry x="980" y="1210" width="590" height="150" as="geometry">
                        <mxRectangle x="870" y="1210" width="90" height="30" as="alternateBounds"/>
                    </mxGeometry>
                </mxCell>
                <mxCell id="170" value="Air.Pressurize()&lt;br&gt;lights on" style="rounded=1;whiteSpace=wrap;html=1;fillColor=#f5f5f5;strokeColor=#666666;fontSize=10;fontColor=#333333;" vertex="1" parent="270">
                    <mxGeometry x="10" y="40" width="120" height="70" as="geometry"/>
                </mxCell>
                <mxCell id="173" value="Air pressurizing" style="rounded=1;whiteSpace=wrap;html=1;fillColor=#dae8fc;strokeColor=#6c8ebf;fontSize=10;" vertex="1" parent="270">
                    <mxGeometry x="160" y="40" width="120" height="70" as="geometry"/>
                </mxCell>
                <mxCell id="175" value="Air pressurized" style="rounded=1;whiteSpace=wrap;html=1;fillColor=#dae8fc;strokeColor=#6c8ebf;fontSize=10;" vertex="1" parent="270">
                    <mxGeometry x="310" y="40" width="120" height="70" as="geometry"/>
                </mxCell>
                <mxCell id="262" value="Lights off" style="rounded=1;whiteSpace=wrap;html=1;fillColor=#dae8fc;strokeColor=#6c8ebf;fontSize=10;" vertex="1" parent="270">
                    <mxGeometry x="460" y="40" width="120" height="70" as="geometry"/>
                </mxCell>
                <mxCell id="168" value="" style="edgeStyle=elbowEdgeStyle;elbow=vertical;html=1;fontSize=10;startArrow=none;startFill=0;" edge="1" source="170" target="173" parent="270">
                    <mxGeometry relative="1" as="geometry"/>
                </mxCell>
                <mxCell id="171" value="" style="edgeStyle=elbowEdgeStyle;elbow=vertical;html=1;fontSize=10;startArrow=none;startFill=0;" edge="1" source="173" target="175" parent="270">
                    <mxGeometry relative="1" as="geometry"/>
                </mxCell>
                <mxCell id="172" value="timeout" style="html=1;fontSize=10;startArrow=none;startFill=0;elbow=vertical;edgeStyle=orthogonalEdgeStyle;entryX=0.5;entryY=1;entryDx=0;entryDy=0;exitX=0.5;exitY=1;exitDx=0;exitDy=0;" edge="1" source="173" target="262" parent="270">
                    <mxGeometry relative="1" as="geometry">
                        <Array as="points">
                            <mxPoint x="220" y="130"/>
                            <mxPoint x="520" y="130"/>
                        </Array>
                        <mxPoint as="offset"/>
                    </mxGeometry>
                </mxCell>
                <mxCell id="174" value="" style="edgeStyle=elbowEdgeStyle;elbow=vertical;html=1;fontSize=10;startArrow=none;startFill=0;" edge="1" source="175" target="262" parent="270">
                    <mxGeometry relative="1" as="geometry"/>
                </mxCell>
                <mxCell id="271" value="Close ExtDoor" style="rounded=1;whiteSpace=wrap;html=1;fillColor=#dae8fc;strokeColor=#6c8ebf;fontSize=10;strokeWidth=3;perimeterSpacing=0;" vertex="1" parent="1">
                    <mxGeometry x="40" y="160" width="120" height="70" as="geometry"/>
                </mxCell>
                <mxCell id="272" value="Close IntDoor" style="rounded=1;whiteSpace=wrap;html=1;fillColor=#dae8fc;strokeColor=#6c8ebf;fontSize=10;strokeWidth=3;perimeterSpacing=0;" vertex="1" parent="1">
                    <mxGeometry x="40" y="380" width="120" height="70" as="geometry"/>
                </mxCell>
                <mxCell id="273" value="&lt;span&gt;Open IntDoor&lt;/span&gt;" style="rounded=1;whiteSpace=wrap;html=1;fillColor=#dae8fc;strokeColor=#6c8ebf;fontSize=10;fontStyle=0;strokeWidth=3;perimeterSpacing=0;" vertex="1" parent="1">
                    <mxGeometry x="-160" y="380" width="120" height="70" as="geometry"/>
                </mxCell>
                <mxCell id="274" value="Close ExtDoor" style="rounded=1;whiteSpace=wrap;html=1;fillColor=#dae8fc;strokeColor=#6c8ebf;fontSize=10;strokeWidth=3;perimeterSpacing=0;" vertex="1" parent="1">
                    <mxGeometry x="40" y="600" width="120" height="70" as="geometry"/>
                </mxCell>
                <mxCell id="275" value="Depressurize" style="rounded=1;whiteSpace=wrap;html=1;fillColor=#dae8fc;strokeColor=#6c8ebf;fontSize=10;strokeWidth=3;perimeterSpacing=0;" vertex="1" parent="1">
                    <mxGeometry x="240" y="600" width="120" height="70" as="geometry"/>
                </mxCell>
                <mxCell id="187" value="Error extDoor not closing" style="rounded=1;whiteSpace=wrap;html=1;fillColor=#f8cecc;strokeColor=#b85450;fontSize=10;" vertex="1" parent="1">
                    <mxGeometry x="540" y="1400" width="120" height="70" as="geometry"/>
                </mxCell>
                <mxCell id="164" value="timeout" style="edgeStyle=none;html=1;fontSize=10;startArrow=none;startFill=0;elbow=vertical;" edge="1" source="165" target="187" parent="1">
                    <mxGeometry relative="1" as="geometry"/>
                </mxCell>
                <mxCell id="284" value="" style="edgeStyle=none;html=1;strokeColor=default;fontSize=10;startArrow=none;startFill=0;elbow=vertical;" edge="1" parent="1" source="279" target="102">
                    <mxGeometry relative="1" as="geometry"/>
                </mxCell>
                <mxCell id="279" value="ExtDoor closed&lt;br style=&quot;font-size: 10px;&quot;&gt;IntDoor closed&lt;br style=&quot;font-size: 10px;&quot;&gt;Air pressurized&lt;br&gt;Way out" style="rounded=1;whiteSpace=wrap;html=1;fillColor=#e1d5e7;strokeColor=#9673a6;fontSize=10;" vertex="1" parent="1">
                    <mxGeometry x="840" y="270" width="120" height="70" as="geometry"/>
                </mxCell>
                <mxCell id="286" value="" style="edgeStyle=none;html=1;strokeColor=default;fontSize=10;startArrow=none;startFill=0;elbow=vertical;" edge="1" parent="1" source="280" target="108">
                    <mxGeometry relative="1" as="geometry"/>
                </mxCell>
                <mxCell id="280" value="ExtDoor closed&lt;br style=&quot;font-size: 10px;&quot;&gt;IntDoor closed&lt;br style=&quot;font-size: 10px;&quot;&gt;Air depressurized&lt;br&gt;Way out" style="rounded=1;whiteSpace=wrap;html=1;fillColor=#e1d5e7;strokeColor=#9673a6;fontSize=10;" vertex="1" parent="1">
                    <mxGeometry x="1590" y="270" width="120" height="70" as="geometry"/>
                </mxCell>
                <mxCell id="290" value="" style="edgeStyle=none;html=1;strokeColor=default;fontSize=10;startArrow=none;startFill=0;elbow=vertical;" edge="1" parent="1" source="281" target="170">
                    <mxGeometry relative="1" as="geometry"/>
                </mxCell>
                <mxCell id="281" value="ExtDoor closed&lt;br style=&quot;font-size: 10px;&quot;&gt;IntDoor closed&lt;br style=&quot;font-size: 10px;&quot;&gt;Air depressurized&lt;br&gt;Way in" style="rounded=1;whiteSpace=wrap;html=1;fillColor=#e1d5e7;strokeColor=#9673a6;fontSize=10;" vertex="1" parent="1">
                    <mxGeometry x="840" y="1250" width="120" height="70" as="geometry"/>
                </mxCell>
                <mxCell id="283" value="" style="edgeStyle=none;html=1;strokeColor=default;fontSize=10;startArrow=none;startFill=0;elbow=vertical;" edge="1" parent="1" source="100" target="279">
                    <mxGeometry relative="1" as="geometry"/>
                </mxCell>
                <mxCell id="285" value="" style="edgeStyle=none;html=1;strokeColor=default;fontSize=10;startArrow=none;startFill=0;elbow=vertical;" edge="1" parent="1" source="264" target="280">
                    <mxGeometry relative="1" as="geometry"/>
                </mxCell>
                <mxCell id="288" value="" style="edgeStyle=none;html=1;strokeColor=default;fontSize=10;startArrow=none;startFill=0;elbow=vertical;" edge="1" parent="1" source="282" target="177">
                    <mxGeometry relative="1" as="geometry"/>
                </mxCell>
                <mxCell id="282" value="ExtDoor closed&lt;br style=&quot;font-size: 10px;&quot;&gt;IntDoor closed&lt;br style=&quot;font-size: 10px;&quot;&gt;Air pressurized&lt;br&gt;Way in" style="rounded=1;whiteSpace=wrap;html=1;fillColor=#e1d5e7;strokeColor=#9673a6;fontSize=10;" vertex="1" parent="1">
                    <mxGeometry x="1590" y="1250" width="120" height="70" as="geometry"/>
                </mxCell>
                <mxCell id="289" value="" style="edgeStyle=none;html=1;strokeColor=default;fontSize=10;startArrow=none;startFill=0;elbow=vertical;" edge="1" parent="1" source="262" target="282">
                    <mxGeometry relative="1" as="geometry"/>
                </mxCell>
                <mxCell id="291" value="" style="edgeStyle=none;html=1;strokeColor=default;fontSize=10;startArrow=none;startFill=0;elbow=vertical;" edge="1" parent="1" source="167" target="281">
                    <mxGeometry relative="1" as="geometry"/>
                </mxCell>
                <mxCell id="292" value="ExtDoor closed&lt;br style=&quot;border-color: var(--border-color);&quot;&gt;IntDoor open&lt;br style=&quot;border-color: var(--border-color);&quot;&gt;Air pressurized&lt;br style=&quot;border-color: var(--border-color);&quot;&gt;&lt;b style=&quot;border-color: var(--border-color);&quot;&gt;Way none&lt;/b&gt;" style="rounded=1;whiteSpace=wrap;html=1;fillColor=#d5e8d4;strokeColor=#82b366;fontSize=10;" vertex="1" parent="1">
                    <mxGeometry x="2400" y="1250" width="120" height="70" as="geometry"/>
                </mxCell>
                <mxCell id="293" value="" style="edgeStyle=none;html=1;strokeColor=default;fontSize=10;startArrow=none;startFill=0;elbow=vertical;" edge="1" parent="1" source="183" target="184">
                    <mxGeometry relative="1" as="geometry"/>
                </mxCell>
            </root>
        </mxGraphModel>
    </diagram>
</mxfile>